<svg xmlns="http://www.w3.org/2000/svg" viewBox="429 537 600 600">
  <rect x="429" y="537" width="600" height="600" rx="120" fill="#ffffff"/>
  <path d="M868.5 883H955L954.51 884.605C943.571 920.453 937.288 941.042 916.5 975C895.483 1004.4 881.166 1018.74 851.5 1039.5C806.003 1066.45 778.515 1075.56 724.5 1076.5C650.975 1072.5 599.074 1048.69 544 1005C583 1001 606.279 978.861 598 936.5C627.109 967.17 648.358 981.502 687.5 991.5C733.551 999.661 757.284 995.281 797 977C838.654 948.308 852.948 926.862 868.5 883Z" fill="url(#fav0)"/>
  <path d="M924 698.965L855.5 745.465C826.679 712.91 806.971 699.22 763.5 686.465C737.375 681.48 722.597 680.169 696.5 683.465C670.129 688.714 657.728 693.932 638.5 705.965C611.775 723.03 600.567 736.297 584 763.465C570.168 790.028 566.398 805.668 564 834.465C564.873 872.658 571.502 892.857 590.5 927.465C576.627 919.404 569.213 913.948 552 914.965C541.923 916.257 536.34 917.947 528 922.965C514.951 931.452 511.93 938.686 508 952.465C487.07 908.193 479.432 882.576 479 834.465C481.829 791.481 487.011 767.726 507.5 726.465C529.037 688.096 544.595 668.457 583.5 639.965C615.717 618.934 634.163 611.834 667.5 601.965C701.819 596.865 720.947 593.127 760.5 598.965C796.372 606.107 816.589 610.309 857 635.965C885.768 657.298 900.659 671.146 924 698.965Z" fill="url(#fav1)"/>
  <path d="M679.5 883.465L740 814.465H886L877 791.465H980L954.5 883.465H679.5Z" fill="url(#fav1)"/>
  <circle cx="553.5" cy="957.5" r="32.5" fill="#293241"/>
  <defs>
    <linearGradient id="fav0" x1="758" y1="883" x2="758" y2="1076.5" gradientUnits="userSpaceOnUse">
      <stop stop-color="#3F4A58"/><stop offset="1" stop-color="#2B3543"/>
    </linearGradient>
    <linearGradient id="fav1" x1="701.5" y1="596" x2="701.5" y2="952.465" gradientUnits="userSpaceOnUse">
      <stop stop-color="#0256CD"/><stop offset="1" stop-color="#012B67"/>
    </linearGradient>
  </defs>
</svg>
